<svg xmlns="http://www.w3.org/2000/svg" viewBox="0 0 1000 644.76"><g id="Layer_2" data-name="Layer 2"><g id="Layer_1-2" data-name="Layer 1"><path d="M57.87,480.24q6.26,0,13.66.58a125.71,125.71,0,0,1,14.93,2.08,65.87,65.87,0,0,1,13.77,4.28l-3.7,21.53q-9.27-.22-17.71-.46T63.66,508q-10.42,0-16.44,2.77a16.77,16.77,0,0,0-8.68,9.84q-2.65,7.07-2.66,19.56,0,12.73,2.66,19.91t8.68,9.95q6,2.79,16.44,2.78c2.47,0,5.63-.07,9.49-.23s8-.35,12.5-.58,8.87-.65,13.19-1.27l3.24,21.76a82.32,82.32,0,0,1-21.06,6,151.21,151.21,0,0,1-23.38,1.85q-21.3,0-33.91-5.9a35.52,35.52,0,0,1-18.17-19.1Q0,562.18,0,540.19T5.67,505a35.47,35.47,0,0,1,18.41-19Q36.8,480.25,57.87,480.24Z"/><path d="M149.07,483.25l21.77,74.07c.61,2.94,1.23,5.87,1.84,8.8s1.16,5.87,1.62,8.8h6.26L169.68,597.6h-8.34a11.07,11.07,0,0,1-6.94-2.31,11.83,11.83,0,0,1-4.17-6l-37.73-106Zm90.74,0L198.84,599a91,91,0,0,1-7.75,17.24,65.69,65.69,0,0,1-12.5,15.63,50,50,0,0,1-18.06,10.53Q150,646,135.65,644.13l-2.55-19.45q14.11-3.7,22-9.95a41.56,41.56,0,0,0,12.27-16.44l7.18-16a107.44,107.44,0,0,0,4.05-12.38q2-7.29,3.35-12.62l21.3-74.07Z"/><path d="M292.13,435.56l.23,37a137.24,137.24,0,0,1-.81,15.16A80.25,80.25,0,0,1,288.66,502l3.24,3,.23,88-34.26-1.62V435.56Zm38,44.68q22.7,0,32.53,13.77t9.84,45.49A113.75,113.75,0,0,1,370,563.8a49.49,49.49,0,0,1-8.57,19.33,39.47,39.47,0,0,1-17,12.73q-10.89,4.53-28.25,4.52-6,0-13.88-.58c-5.25-.39-10.62-.92-16.09-1.62a153.49,153.49,0,0,1-15.63-2.78,75.72,75.72,0,0,1-12.73-4l27.32-19.68a89.42,89.42,0,0,0,9.72,2.44,84.23,84.23,0,0,0,10.88,1.38,82.84,82.84,0,0,0,9.72.12q7.88-.23,12.62-3.36T335,561.37q2.1-7.75,2.09-21.64,0-12.74-1.74-19.79t-6.25-10q-4.51-2.88-12.61-2.89a29.71,29.71,0,0,0-13.89,3.24,127.72,127.72,0,0,0-13.89,8.56l-2.55-16.2a91.19,91.19,0,0,1,13-11.57,59.88,59.88,0,0,1,14.81-8A46.59,46.59,0,0,1,330.09,480.24Z"/><path d="M452.08,480.24q28.95,0,41.56,9.83t12.61,29.29q.24,15.75-7.87,23.49t-28,7.76H406.48V531.4h54.4q7.88,0,10.07-3.36c1.46-2.24,2.2-5.36,2.2-9.37-.15-5.41-1.74-9.15-4.74-11.23s-8.07-3.13-15.17-3.13q-9.5,0-14.81,2.55T431,516.58q-2.08,7.18-2.08,20.84,0,14.36,2.54,22.1t8.68,10.77q6.13,3,17,3,7.86,0,19.56-.58t23.49-2l3.25,21.06a68.32,68.32,0,0,1-15.28,5.1,145.08,145.08,0,0,1-17.6,2.66q-9,.81-17.36.81-21.76,0-35.07-6.37A38.54,38.54,0,0,1,399,574.45q-5.91-13.19-5.91-33.79,0-22.45,6-35.65a36.79,36.79,0,0,1,19-19Q431,480.25,452.08,480.24Z"/><path d="M557.64,483.25l4.17,22.68,3.24,3V597.6H530.79V483.25Zm55.79-3L610.19,512H600.7a66,66,0,0,0-16.9,2.32q-8.81,2.31-22.22,6.94L559.26,502a98.17,98.17,0,0,1,24.31-16.21,57.64,57.64,0,0,1,23.84-5.55Z"/><path d="M675.47,480.24q8.32,0,18,.58t19,1.5q9.25.93,16.44,2.32l-2.32,21.29q-11.1-.23-22.33-.34t-21.88-.12a124.39,124.39,0,0,0-13.89.23q-4.86.46-6.83,2.2t-2,6.13q0,5.1,3.48,6.83a63.84,63.84,0,0,0,11.57,3.82l29.86,7.18q14.36,3.71,21.3,11t6.94,21.88q0,14.35-5.32,22t-16.9,10.53q-11.58,2.89-29.86,2.9-7.18,0-21.3-.7a276.06,276.06,0,0,1-31-3.47l2.32-21.3c2.78.16,6.32.27,10.65.35s9,.12,14.12.12h15.28q11.8,0,18-.58c4.17-.39,7-1.27,8.57-2.66s2.31-3.48,2.31-6.25c0-3.4-1.31-5.71-3.93-6.95a72.37,72.37,0,0,0-12.51-3.93L654.4,547.6q-10.89-3-16.9-7.64a24.73,24.73,0,0,1-8.45-11.34,47,47,0,0,1-2.43-16q0-11.81,4.75-18.87t15.51-10.3Q657.64,480.24,675.47,480.24Z"/><path d="M850.69,483.25l3.48,22.68,3.47,3V597.6H823.38V483.25Zm46.3-3q15.27,0,23.26,8t8,23.72V597.6H895.37v-75q0-7.41-3.13-10.42t-9.6-3a29.15,29.15,0,0,0-7.76,1.05,47.34,47.34,0,0,0-8.8,3.58q-5,2.55-12.15,7.18l-2.08-19q11.34-10.87,22-16.32A50.12,50.12,0,0,1,897,480.24Zm71.3,0q15.5,0,23.61,8.1T1000,512V597.6H966v-75q0-7.17-2.78-10.3t-9.72-3.13a26.28,26.28,0,0,0-7.87,1.16A53.49,53.49,0,0,0,937,514q-4.86,2.57-11.81,7l-1.85-19q11.1-10.87,21.87-16.32A50.35,50.35,0,0,1,968.29,480.24Z"/><path d="M775.23,486.22a43.08,43.08,0,0,1-15.65-3H758.1V597.6h34V483.25h-1.24A43.1,43.1,0,0,1,775.23,486.22Z"/><path d="M775.23,451.26a14.29,14.29,0,1,1-14.29,14.28,14.3,14.3,0,0,1,14.29-14.28m0-16.47A30.75,30.75,0,1,0,806,465.54a30.75,30.75,0,0,0-30.75-30.75Z"/><path d="M613.56,124.62a58.68,58.68,0,0,0-44.3-44.15l-30.9-7.07v-35a38.37,38.37,0,1,0-76.74,0v35l-30.83,7.07a58.67,58.67,0,0,0-44.34,44.15A91.52,91.52,0,0,0,311.12,183h73.79v14.15a130.12,130.12,0,0,0,26.55,78.58,91.6,91.6,0,0,0-4.85,84.36l47.84-47.84,35.72,20.41a46.8,46.8,0,0,0,6,12.77l3.86,5.82,3.89-5.82a48,48,0,0,0,6-12.77l36.84-21.09,48.55,48.52a91.65,91.65,0,0,0-5.69-85.75,130,130,0,0,0,25.56-77.19V183h73.75A91.55,91.55,0,0,0,613.56,124.62ZM529.91,176a4.34,4.34,0,1,1-8.68,0,4.34,4.34,0,1,1,8.68,0ZM446,217.18a4.34,4.34,0,1,1,0-8.68,4.34,4.34,0,1,1,0,8.68Zm128,38.23a95.21,95.21,0,0,1-5.92,8.13l-.74-.74a6.38,6.38,0,0,0-4.53-1.86H506.21a15.68,15.68,0,1,0,0,12.86h52.54A104.86,104.86,0,0,1,538,289.39l-8.56,4.89L500,311.09l-28.26-16.17-9.68-5.53a106.54,106.54,0,0,1-9.61-6.21V227.11a15.69,15.69,0,1,0-12.87,0v45.05A108.17,108.17,0,0,1,426.7,256.5a106.23,106.23,0,0,1-18.19-59.35V173.23h52.95L480.2,192V226.6a6.45,6.45,0,0,0,6.43,6.43h22.28a15.73,15.73,0,1,0-1.06-12.86H493.06V189.3a6.47,6.47,0,0,0-1.86-4.53l-22.54-22.5a6.29,6.29,0,0,0-4.53-1.9H408.51V138a34.44,34.44,0,0,1,.51-6,5.21,5.21,0,0,0,1,.1H466.6a15.69,15.69,0,1,0,0-12.86H413.91a35,35,0,0,1,22.15-15.73L500,88.86l26.52,6.08L521,100.47a6.42,6.42,0,0,0-1.86,4.53v56.65a15.59,15.59,0,0,0-9.3,14.31A15.73,15.73,0,1,0,532,161.65v-54l9.35-9.35L564,103.49a35.12,35.12,0,0,1,22.24,15.89l-24.11,24.08a6.58,6.58,0,0,0-1.9,4.56v59.61a6.46,6.46,0,0,0,1.9,4.53l22.47,22.48A106.44,106.44,0,0,1,574.05,255.41Zm-77.81,12A4.32,4.32,0,1,1,491.9,263,4.34,4.34,0,0,1,496.24,267.37Zm22.06-42a4.34,4.34,0,1,1,4.34,4.34A4.32,4.32,0,0,1,518.3,225.41Zm-41.7-99.76a4.34,4.34,0,1,1,4.34,4.34A4.35,4.35,0,0,1,476.6,125.65Zm114.91,71.5a106.9,106.9,0,0,1-2.67,23.56L573.08,205V150.69l18-18a36.4,36.4,0,0,1,.39,5.37Z"/></g></g></svg>