<svg xmlns="http://www.w3.org/2000/svg" xmlns:xlink="http://www.w3.org/1999/xlink" viewBox="0 0 1400 294.15"><defs><style>.cls-1{fill:#3c3c3b;}.cls-2{fill:#5745f2;}.cls-3{fill:url(#linear-gradient);}</style><linearGradient id="linear-gradient" x1="238.02" y1="290.38" x2="79.36" y2="42" gradientUnits="userSpaceOnUse"><stop offset="0" stop-color="#5745f2"/><stop offset="1" stop-color="#27cffc"/></linearGradient></defs><g id="Layer_2" data-name="Layer 2"><g id="Layer_1-2" data-name="Layer 1"><path class="cls-1" d="M450.25,105.77q6.3,0,13.76.58a127.92,127.92,0,0,1,15.06,2.1A66.33,66.33,0,0,1,493,112.77l-3.73,21.7q-9.35-.22-17.85-.46t-15.29-.24q-10.5,0-16.57,2.8t-8.75,9.92q-2.68,7.13-2.68,19.72,0,12.84,2.68,20.07t8.75,10q6.06,2.81,16.57,2.8c2.49,0,5.68-.07,9.57-.23s8.08-.35,12.6-.58,8.94-.66,13.3-1.29L494.82,219A83.21,83.21,0,0,1,473.58,225,152.41,152.41,0,0,1,450,226.88q-21.47,0-34.19-5.95a35.78,35.78,0,0,1-18.31-19.25q-5.61-13.31-5.6-35.47t5.71-35.47a35.74,35.74,0,0,1,18.56-19.14Q429,105.78,450.25,105.77Z"/><path class="cls-1" d="M542.19,108.8l21.93,74.68c.62,3,1.24,5.91,1.87,8.87s1.17,5.91,1.63,8.86h6.3l-11,22.87h-8.4a11.15,11.15,0,0,1-7-2.33,12,12,0,0,1-4.2-6.07l-38-106.88Zm91.47,0-41.3,116.68a92.84,92.84,0,0,1-7.82,17.39,66.46,66.46,0,0,1-12.6,15.75,50.51,50.51,0,0,1-18.2,10.62q-10.63,3.61-25.09,1.75l-2.57-19.61q14.24-3.74,22.17-10a42,42,0,0,0,12.37-16.57l7.24-16.1a106.66,106.66,0,0,0,4.08-12.48c1.32-4.91,2.45-9.14,3.38-12.72l21.47-74.68Z"/><path class="cls-1" d="M686.4,60.73l.23,37.34a139.46,139.46,0,0,1-.81,15.28,81.32,81.32,0,0,1-2.92,14.35l3.27,3,.23,88.67-34.54-1.63v-157Zm38.27,45q22.88,0,32.79,13.88t9.92,45.86a114.91,114.91,0,0,1-2.45,24.5,50.09,50.09,0,0,1-8.64,19.49,39.84,39.84,0,0,1-17.15,12.83q-11,4.56-28.47,4.55-6.07,0-14-.58t-16.22-1.64a155.4,155.4,0,0,1-15.75-2.79,75.8,75.8,0,0,1-12.84-4.09l27.54-19.84a90.31,90.31,0,0,0,9.8,2.46,85.86,85.86,0,0,0,11,1.4,84,84,0,0,0,9.8.11q7.93-.22,12.72-3.38t6.88-11q2.1-7.81,2.1-21.82,0-12.83-1.75-20c-1.17-4.74-3.26-8.09-6.3-10s-7.27-2.92-12.72-2.92a29.94,29.94,0,0,0-14,3.27,127,127,0,0,0-14,8.63l-2.57-16.33a92.06,92.06,0,0,1,13.07-11.67,60.41,60.41,0,0,1,14.94-8A46.84,46.84,0,0,1,724.67,105.77Z"/><path class="cls-1" d="M847.65,105.77q29.18,0,41.89,9.92t12.71,29.52q.24,15.87-7.93,23.68t-28.23,7.82H801.68V157.34h54.84q7.92,0,10.15-3.38c1.47-2.25,2.21-5.41,2.21-9.45q-.23-8.17-4.78-11.32T848.82,130q-9.57,0-14.94,2.57t-7.47,9.8q-2.1,7.23-2.1,21,0,14.47,2.57,22.29t8.75,10.85q6.18,3,17.15,3,7.94,0,19.72-.58t23.69-2l3.27,21.24a68.63,68.63,0,0,1-15.41,5.13,145,145,0,0,1-17.73,2.69q-9.11.81-17.5.81-21.95,0-35.36-6.42a38.91,38.91,0,0,1-19.37-19.71q-5.94-13.31-6-34.07,0-22.63,6.07-35.94a37,37,0,0,1,19.14-19.14Q826.42,105.78,847.65,105.77Z"/><path class="cls-1" d="M954.06,108.8l4.2,22.87,3.27,3v89.37H927V108.8Zm56.24-3-3.27,32h-9.56a67.14,67.14,0,0,0-17,2.33q-8.86,2.34-22.4,7l-2.34-19.37a98.87,98.87,0,0,1,24.51-16.33,58.09,58.09,0,0,1,24-5.6Z"/><path class="cls-2" d="M1072.84,105.77q8.4,0,18.2.58t19.14,1.52q9.32.93,16.56,2.33l-2.33,21.47q-11.21-.22-22.52-.35t-22.05-.12a125.83,125.83,0,0,0-14,.24q-4.9.47-6.89,2.21c-1.32,1.17-2,3.24-2,6.19,0,3.42,1.17,5.72,3.5,6.88a64.83,64.83,0,0,0,11.67,3.86l30.1,7.23q14.46,3.74,21.47,11.08t7,22.06q0,14.46-5.37,22.16t-17,10.62q-11.67,2.91-30.11,2.92-7.23,0-21.46-.7a278.22,278.22,0,0,1-31.27-3.5L1027.8,201q4.2.22,10.74.35t14.23.12h15.4q11.91,0,18.2-.59c4.2-.38,7.08-1.28,8.64-2.68s2.33-3.5,2.33-6.3q0-5.13-4-7a71.22,71.22,0,0,0-12.6-4l-29.17-7.23q-11-3-17-7.7a24.94,24.94,0,0,1-8.52-11.44,47.45,47.45,0,0,1-2.45-16.1q0-11.91,4.78-19T1044,109Q1054.87,105.77,1072.84,105.77Z"/><path class="cls-2" d="M1249.49,108.8l3.5,22.87,3.49,3v89.37H1222V108.8Zm46.67-3q15.39,0,23.45,8t8.05,23.92v86.34h-33.14V148.47q0-7.46-3.15-10.5t-9.68-3a29.59,29.59,0,0,0-7.82,1.05,48.12,48.12,0,0,0-8.87,3.61q-5,2.58-12.25,7.24l-2.1-19.14q11.43-11,22.17-16.45A50.62,50.62,0,0,1,1296.16,105.77Zm71.87,0q15.63,0,23.8,8.17t8.17,23.8v86.34h-34.3V148.47q0-7.23-2.8-10.38t-9.8-3.15a26.38,26.38,0,0,0-7.94,1.17,53.46,53.46,0,0,0-8.63,3.73q-4.9,2.57-11.9,7l-1.87-19.14q11.19-11,22-16.45A50.84,50.84,0,0,1,1368,105.77Z"/><path class="cls-2" d="M1173.41,111.8a43.34,43.34,0,0,1-15.78-3h-1.48V224.08h34.3V108.8h-1.25A43.39,43.39,0,0,1,1173.41,111.8Z"/><path class="cls-2" d="M1173.41,76.55A14.41,14.41,0,1,1,1159,91a14.42,14.42,0,0,1,14.4-14.41m0-16.59a31,31,0,1,0,31,31,31,31,0,0,0-31-31Z"/><path class="cls-3" d="M247.06,101.8a47.93,47.93,0,0,0-36.19-36.06L185.63,60V31.36a31.35,31.35,0,1,0-62.69,0V60L97.75,65.74A47.91,47.91,0,0,0,61.54,101.8,74.77,74.77,0,0,0,0,149.49H60.28v11.56A106.24,106.24,0,0,0,82,225.24a74.77,74.77,0,0,0-4,68.91l39.08-39.08,29.18,16.68a38,38,0,0,0,4.89,10.42l3.15,4.76,3.18-4.76a38.87,38.87,0,0,0,4.88-10.42l30.1-17.23,39.66,39.63a74.89,74.89,0,0,0-4.65-70,106.23,106.23,0,0,0,20.88-63.06V149.49H308.6A74.81,74.81,0,0,0,247.06,101.8Zm-68.34,41.94a3.55,3.55,0,1,1-7.09,0,3.55,3.55,0,0,1,7.09,0ZM110.2,177.41a3.55,3.55,0,1,1,3.55-3.55A3.56,3.56,0,0,1,110.2,177.41Zm104.58,31.23a79.65,79.65,0,0,1-4.83,6.64l-.6-.6a5.26,5.26,0,0,0-3.71-1.53H159.37a12.82,12.82,0,1,0,0,10.51h42.91a85.73,85.73,0,0,1-17,12.74l-7,4-24,13.74-23.09-13.22-7.9-4.51a89.27,89.27,0,0,1-7.86-5.07v-45.8A12.71,12.71,0,0,0,123,173.86,12.83,12.83,0,1,0,105,185.53v36.79a87,87,0,0,1-25.4-61.27V141.51h43.26l15.31,15.31V185.1a5.27,5.27,0,0,0,5.25,5.26h18.2a12.86,12.86,0,1,0-.86-10.51H148.63V154.64a5.29,5.29,0,0,0-1.53-3.7l-18.41-18.39A5.15,5.15,0,0,0,125,131H79.55V112.75a27.76,27.76,0,0,1,.42-4.94,4.32,4.32,0,0,0,.79.08H127a12.82,12.82,0,1,0,0-10.5H84a28.63,28.63,0,0,1,18.1-12.85l52.24-12,21.67,5-4.52,4.51a5.29,5.29,0,0,0-1.52,3.71v46.27a12.72,12.72,0,0,0-7.6,11.69,12.85,12.85,0,1,0,18.1-11.69V88l7.64-7.65,18.49,4.23a28.72,28.72,0,0,1,18.18,13L205,117.19a5.4,5.4,0,0,0-1.55,3.73v48.69a5.27,5.27,0,0,0,1.55,3.7l18.36,18.36A87.08,87.08,0,0,1,214.78,208.64Zm-63.55,9.77a3.54,3.54,0,1,1-3.55-3.55A3.55,3.55,0,0,1,151.23,218.41Zm18-34.28a3.55,3.55,0,1,1,3.55,3.55A3.53,3.53,0,0,1,169.24,184.13Zm-34.06-81.49a3.55,3.55,0,1,1,3.54,3.54A3.55,3.55,0,0,1,135.18,102.64ZM229,161.05a86.93,86.93,0,0,1-2.18,19.25L214,167.43V123.1l14.74-14.74a30,30,0,0,1,.31,4.39Z"/></g></g></svg>