<?xml version="1.0" encoding="UTF-8" standalone="no"?>
<!-- Created with Inkscape (http://www.inkscape.org/) -->

<svg
   width="31.439678mm"
   height="31.439684mm"
   viewBox="0 0 31.439678 31.439684"
   version="1.1"
   id="svg1"
   xml:space="preserve"
   xmlns="http://www.w3.org/2000/svg"
   xmlns:svg="http://www.w3.org/2000/svg"><defs
     id="defs1" /><g
     id="layer2"
     style="display:inline"
     transform="translate(-87.500699,-138.52209)"><path
       id="path5"
       style="display:inline;fill:#3579f6;stroke:#000000;stroke-width:0"
       d="m 118.94039,154.24194 a 15.719842,15.719842 0 0 1 -15.71984,15.71985 15.719842,15.719842 0 0 1 -15.719841,-15.71985 15.719842,15.719842 0 0 1 15.719841,-15.71984 15.719842,15.719842 0 0 1 15.71984,15.71984 z" /><ellipse
       style="display:inline;fill:#ffffff;fill-opacity:1;stroke:#000000;stroke-width:0;stroke-dasharray:none"
       id="path6"
       cx="103.21024"
       cy="154.14516"
       rx="10.247519"
       ry="9.9880877" /><path
       id="path7-5"
       style="display:inline;fill:none;stroke:#3579f6;stroke-width:1.5"
       d="m 114.24036,154.37804 c -2.05343,2.85584 -6.2081,4.80877 -10.99914,4.80877 -4.87709,0 -9.094758,-2.02371 -11.107751,-4.96353" /><path
       id="path7"
       style="display:inline;fill:none;stroke:#3579f6;stroke-width:1.5"
       d="m 92.126672,154.49492 c 2.00951,-2.94673 6.232332,-4.97631 11.116488,-4.97631 4.86697,0 9.07724,2.01532 11.09518,4.94523" /><path
       id="path7-2"
       style="display:inline;fill:none;stroke:#3579f6;stroke-width:1.5"
       transform="rotate(90)"
       d="m 149.73523,-107.46662 c 1.42413,-0.41016 2.97936,-0.63587 4.60814,-0.63587 1.4861,0 2.91097,0.1879 4.2309,0.53236" /><path
       id="path7-5-5"
       style="display:inline;fill:none;stroke:#3579f6;stroke-width:1.5"
       transform="rotate(90)"
       d="m 158.63068,-98.981992 c -1.33625,0.354224 -2.78123,0.547707 -4.28925,0.547707 -1.54682,0 -3.02731,-0.203567 -4.39216,-0.575364" /></g></svg>
