<?xml version="1.0" encoding="UTF-8" standalone="no"?>
<svg
   viewBox="0 0 377.81 360.05999"
   version="1.1"
   id="svg11"
   sodipodi:docname="cybersim_logo_turtle_only.svg"
   inkscape:version="1.4.2 (ebf0e940, 2025-05-08)"
   width="377.81"
   height="360.06"
   inkscape:export-filename="cybersim_logo_turtle_only.svg"
   inkscape:export-xdpi="96"
   inkscape:export-ydpi="96"
   xmlns:inkscape="http://www.inkscape.org/namespaces/inkscape"
   xmlns:sodipodi="http://sodipodi.sourceforge.net/DTD/sodipodi-0.dtd"
   xmlns="http://www.w3.org/2000/svg"
   xmlns:svg="http://www.w3.org/2000/svg">
  <sodipodi:namedview
     id="namedview11"
     pagecolor="#ffffff"
     bordercolor="#000000"
     borderopacity="0.25"
     inkscape:showpageshadow="2"
     inkscape:pageopacity="0.0"
     inkscape:pagecheckerboard="0"
     inkscape:deskcolor="#d1d1d1"
     inkscape:zoom="0.38883759"
     inkscape:cx="196.74024"
     inkscape:cy="61.722428"
     inkscape:window-width="1072"
     inkscape:window-height="747"
     inkscape:window-x="0"
     inkscape:window-y="33"
     inkscape:window-maximized="0"
     inkscape:current-layer="Layer_1-2" />
  <defs
     id="defs2">
    <style
       id="style1">.cls-1{fill:#3c3c3b;}.cls-2{fill:#5745f2;}.cls-3{fill:url(#linear-gradient);}</style>
    <linearGradient
       id="linear-gradient"
       x1="602.48999"
       y1="355.47"
       x2="408.26999"
       y2="51.419998"
       gradientUnits="userSpaceOnUse">
      <stop
         offset="0"
         stop-color="#5745f2"
         id="stop1" />
      <stop
         offset="1"
         stop-color="#27cffc"
         id="stop2" />
    </linearGradient>
  </defs>
  <g
     id="Layer_2"
     data-name="Layer 2"
     transform="translate(-311.12,-0.03)">
    <g
       id="Layer_1-2"
       data-name="Layer 1">
      <path
         class="cls-3"
         d="m 613.56,124.62 a 58.68,58.68 0 0 0 -44.3,-44.15 l -30.9,-7.07 v -35 a 38.37,38.37 0 1 0 -76.74,0 v 35 l -30.83,7.07 A 58.67,58.67 0 0 0 386.45,124.62 91.52,91.52 0 0 0 311.12,183 h 73.79 v 14.15 a 130.12,130.12 0 0 0 26.55,78.58 91.6,91.6 0 0 0 -4.85,84.36 l 47.84,-47.84 35.72,20.41 a 46.8,46.8 0 0 0 6,12.77 l 3.86,5.82 3.89,-5.82 a 48,48 0 0 0 6,-12.77 l 36.84,-21.09 48.55,48.52 a 91.65,91.65 0 0 0 -5.69,-85.75 130,130 0 0 0 25.56,-77.19 V 183 h 73.75 A 91.55,91.55 0 0 0 613.56,124.62 Z M 529.91,176 a 4.34,4.34 0 1 1 -8.68,0 4.34,4.34 0 1 1 8.68,0 z M 446,217.18 a 4.34,4.34 0 1 1 0,-8.68 4.34,4.34 0 1 1 0,8.68 z m 128,38.23 a 95.21,95.21 0 0 1 -5.92,8.13 l -0.74,-0.74 a 6.38,6.38 0 0 0 -4.53,-1.86 h -56.6 a 15.68,15.68 0 1 0 0,12.86 h 52.54 A 104.86,104.86 0 0 1 538,289.39 l -8.56,4.89 -29.44,16.81 -28.26,-16.17 -9.68,-5.53 a 106.54,106.54 0 0 1 -9.61,-6.21 v -56.07 a 15.69,15.69 0 1 0 -12.87,0 v 45.05 A 108.17,108.17 0 0 1 426.7,256.5 106.23,106.23 0 0 1 408.51,197.15 v -23.92 h 52.95 L 480.2,192 v 34.6 a 6.45,6.45 0 0 0 6.43,6.43 h 22.28 a 15.73,15.73 0 1 0 -1.06,-12.86 H 493.06 V 189.3 a 6.47,6.47 0 0 0 -1.86,-4.53 l -22.54,-22.5 a 6.29,6.29 0 0 0 -4.53,-1.9 H 408.51 V 138 a 34.44,34.44 0 0 1 0.51,-6 5.21,5.21 0 0 0 1,0.1 h 56.58 a 15.69,15.69 0 1 0 0,-12.86 h -52.69 a 35,35 0 0 1 22.15,-15.73 L 500,88.86 l 26.52,6.08 -5.52,5.53 a 6.42,6.42 0 0 0 -1.86,4.53 v 56.65 a 15.59,15.59 0 0 0 -9.3,14.31 15.73,15.73 0 1 0 22.16,-14.31 v -54 l 9.35,-9.35 22.65,5.19 a 35.12,35.12 0 0 1 22.24,15.89 l -24.11,24.08 a 6.58,6.58 0 0 0 -1.9,4.56 v 59.61 a 6.46,6.46 0 0 0 1.9,4.53 l 22.47,22.48 a 106.44,106.44 0 0 1 -10.55,20.77 z m -77.81,12 a 4.32,4.32 0 1 1 -4.29,-4.41 4.34,4.34 0 0 1 4.34,4.37 z m 22.06,-42 a 4.34,4.34 0 1 1 4.34,4.34 4.32,4.32 0 0 1 -4.29,-4.34 z m -41.7,-99.76 a 4.34,4.34 0 1 1 4.34,4.34 4.35,4.35 0 0 1 -4.29,-4.34 z m 114.91,71.5 a 106.9,106.9 0 0 1 -2.67,23.56 L 573.08,205 v -54.31 l 18,-18 a 36.4,36.4 0 0 1 0.39,5.37 z"
         id="path11"
         style="fill:url(#linear-gradient)" />
    </g>
  </g>
</svg>
